<?xml version="1.0" encoding="UTF-8"?>
<svg width="70px" height="81px" viewBox="0 0 70 81" version="1.1" xmlns="http://www.w3.org/2000/svg" xmlns:xlink="http://www.w3.org/1999/xlink">
    <title>icon-allocation</title>
    <g id="Page-1" stroke="none" stroke-width="1" fill="none" fill-rule="evenodd">
        <g id="Thunderstock---Homepage-Copy" transform="translate(-282.000000, -1594.000000)">
            <g id="modules" transform="translate(-0.020474, 1497.500000)">
                <g id="Module1" transform="translate(226.520478, 66.500000)">
                    <g id="icon-allocation" transform="translate(55.503597, 30.000000)">
                        <path d="M54.3079586,20.8704544 L42.0614187,13.7997774 L35,17.8767267 L27.9385813,13.7997774 L15.6920414,20.8704544 L15.6920414,29.024196 L8.63062279,33.1011453 L8.63062279,47.2420284 L15.6920414,51.3189777 L15.6920414,59.4727194 L27.9385813,66.5433963 L35,62.4664471 L42.0614187,66.5433963 L54.3079586,59.4727194 L54.3079586,51.3189777 L61.3693772,47.2420284 L61.3693772,33.1011453 L54.3079586,29.024196 L54.3079586,20.8704544 Z M27.9385813,36.094873 L35,32.0179237 L42.0614187,36.094873 L42.0614187,44.2486146 L35,48.3255639 L27.9385813,44.2486146 L27.9385813,36.094873 Z" id="Shape" fill="#FF9800"></path>
                        <g id="Group" fill="#011413" fill-rule="nonzero">
                            <path d="M42.8460207,65.1846225 L35.7846021,61.1076732 C35.2990903,60.8272564 34.7009097,60.8272564 34.2153979,61.1076732 L27.1539793,65.1846225 C26.6684675,65.4648823 26.3693772,65.9830335 26.3693772,66.5435533 L26.3693772,74.6972949 C26.3693772,75.2578146 26.6684675,75.7759658 27.1539793,76.0562257 C27.1539793,76.0562257 34.1967244,80.1223475 34.1967244,80.1223475 C34.6657595,80.4143764 35.3342405,80.4146902 35.8032756,80.1223475 C35.8032756,80.1223475 42.8460207,76.0562257 42.8460207,76.0562257 C43.3315325,75.7759658 43.6306228,75.2578146 43.6306228,74.6972949 L43.6306228,66.5435533 C43.6306228,65.9830335 43.3315325,65.4648823 42.8460207,65.1846225 Z M35,64.2784071 L38.9230104,66.5433963 L35,68.8083856 L31.0769896,66.5433963 L35,64.2784071 Z M29.5077855,69.2614148 L33.4307959,71.5264041 L33.4307959,76.0562257 L29.5077855,73.7912364 L29.5077855,69.2614148 Z M36.5692041,76.0562257 L36.5692041,71.5264041 L40.4922145,69.2614148 L40.4922145,73.7912364 L36.5692041,76.0562257 Z" id="Shape"></path>
                            <path d="M0.784602072,30.3832837 L7.82734719,34.4494055 C8.06100169,34.5904769 8.34581224,34.671134 8.63062279,34.67051 C8.91543335,34.6709771 9.20008698,34.5906339 9.4338984,34.4494055 C9.4338984,34.4494055 16.4766435,30.3832837 16.4766435,30.3832837 C16.9621553,30.1030239 17.2612456,29.5848726 17.2612456,29.0243529 L17.2612456,20.8706113 C17.2612456,20.3100916 16.9621553,19.7919403 16.4766435,19.5116805 L9.41522487,15.4347312 C8.9297131,15.1543144 8.33153248,15.1543144 7.84602072,15.4347312 L0.784602072,19.5116805 C0.29909031,19.7919403 0,20.3100916 0,20.8706113 L0,29.0243529 C0,29.5848726 0.29909031,30.1028669 0.784602072,30.3832837 L0.784602072,30.3832837 Z M3.13840829,23.5883159 L7.06141865,25.8533052 L7.06141865,30.3831268 L3.13840829,28.1181375 L3.13840829,23.5883159 Z M10.1998269,30.3832837 L10.1998269,25.8534621 L14.1228373,23.5884729 L14.1228373,28.1182945 L10.1998269,30.3832837 Z M8.63062279,18.6054651 L12.5536332,20.8704544 L8.63062279,23.1354436 L4.70761243,20.8704544 L8.63062279,18.6054651 Z" id="Shape"></path>
                            <path d="M69.2153979,19.5115236 L62.1539793,15.4345743 C61.6684675,15.1541575 61.0702869,15.1541575 60.5847751,15.4345743 C60.5847751,15.4345743 53.5233565,19.5115236 53.5233565,19.5115236 C53.0378447,19.7917834 52.7387544,20.3099346 52.7387544,20.8704544 L52.7387544,29.024196 C52.7387544,29.5847157 53.0378447,30.1028669 53.5233565,30.3831268 C53.5233565,30.3831268 60.5661016,34.4492486 60.5661016,34.4492486 C61.0351367,34.7412775 61.7036177,34.7415913 62.1726528,34.4492486 C62.1726528,34.4492486 69.2153979,30.3831268 69.2153979,30.3831268 C69.7009097,30.1028669 70,29.5847157 70,29.024196 L70,20.8704544 C70,20.3099346 69.7009097,19.7917834 69.2153979,19.5115236 Z M61.3693772,18.6054651 L65.2923876,20.8704544 L61.3693772,23.1354436 L57.4463668,20.8704544 L61.3693772,18.6054651 Z M55.8771627,23.5883159 L59.8001731,25.8533052 L59.8001731,30.3831268 L55.8771627,28.1181375 L55.8771627,23.5883159 Z M62.9385813,30.3832837 L62.9385813,25.8534621 L66.8615917,23.5884729 L66.8615917,28.1182945 L62.9385813,30.3832837 Z" id="Shape"></path>
                            <path d="M69.2153979,49.9600469 L62.1539793,45.8830977 C61.6684675,45.6026809 61.0702869,45.6026809 60.5847751,45.8830977 L54.3079586,49.5071746 L43.6306228,43.3427131 L43.6306228,36.094873 C43.6306228,35.5343532 43.3315325,35.016202 42.8460207,34.7359422 L36.5692041,31.1118652 L36.5692041,18.7827852 L42.8460207,15.1588651 C43.3315325,14.8786052 43.6306228,14.360454 43.6306228,13.7999343 L43.6306228,5.64603574 C43.6306228,5.08551602 43.3315325,4.56736481 42.8460207,4.28710495 L35.7846021,0.210312585 C35.2990903,-0.0701041952 34.7009097,-0.0701041952 34.2153979,0.210312585 L27.1539793,4.28710495 C26.6684675,4.56736481 26.3693772,5.08551602 26.3693772,5.64603574 L26.3693772,13.7999343 C26.3693772,14.360454 26.6684675,14.8786052 27.1539793,15.1588651 L33.4307959,18.7827852 L33.4307959,31.1118652 L27.1539793,34.7359422 C26.6684675,35.016202 26.3693772,35.5343532 26.3693772,36.094873 L26.3693772,43.3427131 L15.6920414,49.5071746 C15.6920414,49.5071746 9.41522487,45.8830977 9.41522487,45.8830977 C8.9297131,45.6026809 8.33153248,45.6026809 7.84602072,45.8830977 L0.784602072,49.9600469 C0.29909031,50.2403068 0,50.758458 0,51.3189777 L0,59.4727194 C0,60.0332391 0.29909031,60.5513903 0.784602072,60.8316502 L7.82734719,64.897772 C8.29638231,65.1898008 8.96486328,65.1901147 9.4338984,64.897772 C9.4338984,64.897772 16.4766435,60.8316502 16.4766435,60.8316502 C16.9621553,60.5513903 17.2612456,60.0332391 17.2612456,59.4727194 L17.2612456,52.2248793 L27.9385813,46.0604177 L34.1967244,49.6735103 C34.4303789,49.8144248 34.7151894,49.8953957 35,49.8946111 C35.2848106,49.8953957 35.5694642,49.8144248 35.8032756,49.6735103 C35.8032756,49.6735103 42.0614187,46.0604177 42.0614187,46.0604177 L52.7387544,52.2248793 L52.7387544,59.4727194 C52.7387544,60.0332391 53.0378447,60.5513903 53.5233565,60.8316502 C53.5233565,60.8316502 60.5661016,64.897772 60.5661016,64.897772 C61.0351367,65.1899578 61.7036177,65.1901147 62.1726528,64.897772 C62.1726528,64.897772 69.2153979,60.8316502 69.2153979,60.8316502 C69.7009097,60.5513903 70,60.0332391 70,59.4727194 L70,51.3189777 C70,50.758458 69.7009097,50.2404637 69.2153979,49.9600469 Z M61.3693772,49.0539885 L65.2923876,51.3189777 L61.3693772,53.583967 L57.4463668,51.3189777 L61.3693772,49.0539885 Z M29.5077855,38.8127345 L33.4307959,41.0777238 L33.4307959,45.6075454 L29.5077855,43.3425561 L29.5077855,38.8127345 Z M35,33.8297268 L38.9230104,36.094716 L35,38.3597053 L31.0769896,36.094716 L35,33.8297268 Z M36.5692041,41.0777238 L40.4922145,38.8127345 L40.4922145,43.3425561 L36.5692041,45.6075454 L36.5692041,41.0777238 Z M36.5692041,15.1588651 L36.5692041,10.6290435 L40.4922145,8.36405424 L40.4922145,12.8940328 L36.5692041,15.1588651 Z M35,3.38104648 L38.9230104,5.64603574 L35,7.911025 L31.0768327,5.64603574 L35,3.38104648 Z M29.5077855,12.8938758 L29.5077855,8.36405424 L33.4307959,10.6290435 L33.4307959,15.1588651 L29.5077855,12.8938758 Z M8.63062279,49.0539885 L12.5536332,51.3189777 L8.63062279,53.583967 L4.70761243,51.3189777 L8.63062279,49.0539885 Z M3.13840829,54.0369962 L7.06141865,56.3019855 L7.06141865,60.8318071 L3.13840829,58.5668178 L3.13840829,54.0369962 Z M14.1228373,58.5668178 L10.1998269,60.8318071 L10.1998269,56.3019855 L14.1228373,54.0369962 L14.1228373,58.5668178 Z M55.8771627,54.0369962 L59.8001731,56.3019855 L59.8001731,60.8318071 L55.8771627,58.5668178 L55.8771627,54.0369962 Z M62.9385813,60.8318071 L62.9385813,56.3019855 L66.8615917,54.0369962 L66.8615917,58.5668178 L62.9385813,60.8318071 Z" id="Shape"></path>
                        </g>
                    </g>
                </g>
            </g>
        </g>
    </g>
</svg>